<svg width="321" height="83" viewBox="0 0 321 83" fill="none" xmlns="http://www.w3.org/2000/svg">
<path d="M38.3919 3.34784L73.4468 18.0159L38.3919 32.6839L3.33691 18.0159L38.3919 3.34784Z" fill="#19A0FC" stroke="#050315" stroke-width="6" stroke-linejoin="round"/>
<path d="M3.33691 18.0159L38.3919 32.6839V79.6522L3.33691 64.9841V18.0159Z" fill="#3BB3FF" stroke="#050315" stroke-width="6" stroke-linejoin="round"/>
<path d="M38.3916 32.6839L73.4465 18.0159V64.9841L38.3916 79.6522V32.6839Z" fill="#147EF4" stroke="#050315" stroke-width="6" stroke-linejoin="round"/>
<path d="M38.3919 3.34784L73.4468 18.0159V64.9841L38.3919 79.6522L3.33691 64.9841V18.0159L38.3919 3.34784Z" stroke="#050315" stroke-width="6" stroke-linejoin="round"/>
<path d="M3.33691 18.0159L38.3919 32.6839L73.4468 18.0159" stroke="#050315" stroke-width="6" stroke-linecap="round"/>
<path d="M38.3916 32.6839V79.6522" stroke="#050315" stroke-width="6" stroke-linecap="round"/>
<path d="M296.244 67.0326V15.3804C296.244 11.8146 293.367 8.92389 289.817 8.92389L259.828 8.92389C256.279 8.92389 253.401 11.8146 253.401 15.3804V67.0326C253.401 70.5984 256.279 73.4891 259.828 73.4891H289.817C293.367 73.4891 296.244 70.5984 296.244 67.0326Z" fill="#3BB3FF" stroke="#050315" stroke-width="6"/>
<path d="M129.442 30.4476H114.444C112.669 30.4476 111.23 31.8929 111.23 33.6758V48.743C111.23 50.5259 112.669 51.9713 114.444 51.9713H129.442C131.216 51.9713 132.655 50.5259 132.655 48.743V33.6758C132.655 31.8929 131.216 30.4476 129.442 30.4476Z" fill="#3BB3FF" stroke="#050315" stroke-width="6"/>
<path d="M150.859 8.92389H135.862C134.087 8.92389 132.648 10.3692 132.648 12.1522V27.2193C132.648 29.0022 134.087 30.4476 135.862 30.4476H150.859C152.634 30.4476 154.073 29.0022 154.073 27.2193V12.1522C154.073 10.3692 152.634 8.92389 150.859 8.92389Z" fill="#3BB3FF" stroke="#050315" stroke-width="6"/>
<path d="M150.859 51.9654H135.862C134.087 51.9654 132.648 53.4107 132.648 55.1937V70.2608C132.648 72.0437 134.087 73.4891 135.862 73.4891H150.859C152.634 73.4891 154.073 72.0437 154.073 70.2608V55.1937C154.073 53.4107 152.634 51.9654 150.859 51.9654Z" fill="#3BB3FF" stroke="#050315" stroke-width="6"/>
<path d="M108.017 8.92389H93.019C91.2443 8.92389 89.8057 10.3692 89.8057 12.1521V70.2608C89.8057 72.0438 91.2443 73.4891 93.019 73.4891H108.017C109.791 73.4891 111.23 72.0438 111.23 70.2608V12.1521C111.23 10.3692 109.791 8.92389 108.017 8.92389Z" fill="#3BB3FF" stroke="#050315" stroke-width="6"/>
<path d="M189.812 8.92389H174.814C173.039 8.92389 171.601 10.3692 171.601 12.1521V70.2608C171.601 72.0438 173.039 73.4891 174.814 73.4891H189.812C191.586 73.4891 193.025 72.0438 193.025 70.2608V12.1521C193.025 10.3692 191.586 8.92389 189.812 8.92389Z" fill="#3BB3FF" stroke="#050315" stroke-width="6"/>
<path d="M235.868 70.2667V55.1995C235.868 53.4166 234.429 51.9713 232.655 51.9713L174.814 51.9713C173.039 51.9713 171.601 53.4166 171.601 55.1995V70.2667C171.601 72.0496 173.039 73.4949 174.814 73.4949H232.655C234.429 73.4949 235.868 72.0496 235.868 70.2667Z" fill="#3BB3FF" stroke="#050315" stroke-width="6"/>
<path d="M235.868 70.2609V12.1521C235.868 10.3692 234.429 8.92389 232.655 8.92389L217.657 8.92389C215.882 8.92389 214.444 10.3692 214.444 12.1521V70.2609C214.444 72.0438 215.882 73.4891 217.657 73.4891H232.655C234.429 73.4891 235.868 72.0438 235.868 70.2609Z" fill="#3BB3FF" stroke="#050315" stroke-width="6"/>
<path d="M317.663 67.0267V36.8982C317.663 33.3324 314.786 30.4417 311.236 30.4417L259.822 30.4417C256.273 30.4417 253.396 33.3324 253.396 36.8982V67.0267C253.396 70.5926 256.273 73.4832 259.822 73.4832H311.236C314.786 73.4832 317.663 70.5926 317.663 67.0267Z" fill="#3BB3FF" stroke="#050315" stroke-width="6"/>
</svg>
